<svg viewBox="0 0 64 64" xmlns="http://www.w3.org/2000/svg"><circle cx="33.5" cy="29.5" fill="#ffded5" r="22.5"/><path d="m22 6v2" fill="none" stroke="#4c241d" stroke-linecap="round" stroke-linejoin="round" stroke-width="2"/><path d="m22 12v2" fill="none" stroke="#4c241d" stroke-linecap="round" stroke-linejoin="round" stroke-width="2"/><path d="m18 10h2" fill="none" stroke="#4c241d" stroke-linecap="round" stroke-linejoin="round" stroke-width="2"/><path d="m24 10h2" fill="none" stroke="#4c241d" stroke-linecap="round" stroke-linejoin="round" stroke-width="2"/><circle cx="39.74" cy="7.987" fill="#4c241d" r="1.069"/><circle cx="48.5" cy="14.5" fill="none" r="2.5" stroke="#4c241d" stroke-linecap="round" stroke-linejoin="round" stroke-width="2"/><path d="m44 37.861v7.365a4.773 4.773 0 0 1 -4.774 4.774h-19.226a9 9 0 0 0 -9 9h44a7 7 0 0 0 7-7v-25a3 3 0 0 0 -6 0 3 3 0 0 0 -6 0 3 3 0 0 0 -6 0l-8 .509v-.509a3 3 0 0 0 -6 0v.945l-18 1.309v-.611a2.6 2.6 0 0 0 -2.242-2.63 2.5 2.5 0 0 0 -2.758 2.487v.5h-2.2a2.805 2.805 0 0 0 -2.8 2.805v5.52a5.132 5.132 0 0 0 4.835 5.123l30.165 1.743 7 5.809" fill="#a9ba5a"/><path d="m44 37.861v7.365a4.773 4.773 0 0 1 -4.774 4.774h-19.226a9 9 0 0 0 -9 9h44a7 7 0 0 0 7-7v-25a3 3 0 0 0 -6 0 3 3 0 0 0 -6 0 3 3 0 0 0 -6 0l-8 .509v-.509a3 3 0 0 0 -6 0v.945l-18 1.309v-.611a2.6 2.6 0 0 0 -2.242-2.63 2.5 2.5 0 0 0 -2.758 2.487v.5h-2.2a2.805 2.805 0 0 0 -2.8 2.805v5.52a5.132 5.132 0 0 0 4.835 5.123l30.165 1.743 2 1.809" fill="none" stroke="#4c241d" stroke-linecap="round" stroke-linejoin="round" stroke-width="2"/><circle cx="33" cy="27" fill="#4c241d" r="1"/><g stroke="#4c241d" stroke-linecap="round" stroke-linejoin="round" stroke-width="2"><path d="m3 35h24" fill="none"/><path d="m8 39-3-4h5z" fill="#fff"/><path d="m13 39-4-4h5z" fill="#fff"/><path d="m19 39-2-4h5z" fill="#fff"/><path d="m36 29v-1" fill="none"/><path d="m55 33a2 2 0 0 0 -4 0" fill="#a9ba5a"/><path d="m55 38a2 2 0 0 0 -4 0" fill="#a9ba5a"/><path d="m55 43a2 2 0 0 0 -4 0" fill="#a9ba5a"/><path d="m55 48a2 2 0 0 0 -4 0" fill="#a9ba5a"/></g></svg>